<svg version="1.1" baseProfile="full" width="2455.75" height="855" viewBox="0 0 2455.75 855" xmlns="http://www.w3.org/2000/svg" xmlns:xlink="http://www.w3.org/1999/xlink" xmlns:ev="http://www.w3.org/2001/xml-events" style="font-weight:bold; font-size:12pt; font-family:'courier', Helvetica, sans-serif;;stroke-width:3;stroke-linejoin:round;stroke-linecap:round">
  <title>AlgoPoaP_Main_Contract_Graph</title>
  <desc>#font: courier
[entry|
]
[b_main|
]
[bz_b_method_check|
]
[bz_b_creation|
]
[bnz_b_deletion|
]
[bnz_b_update|
]
[bnz_b_closeout|
]
[bnz_b_optin|
]
[bnz_b_noop|
]
[b_method_check|
]
[bnz_method_setup|
]
[bnz_method_item_create|
]
[bnz_method_item_update|
]
[bnz_method_item_delete|
]
[bnz_method_get_metric|
]
[bnz_method_get_metrics|
]
[sub_check_author|
]
[b_creation|
]
[b_optin|
]
[b_deletion|
]
[callsub_sub_check_author|
]
[b_update|
]
[b_closeout|
]
[b_noop|
]
[method_setup|
]
[method_item_create|
]
[method_item_update|
]
[method_item_delete|
]
[method_get_metric|
]
[method_get_metrics|
]
[b_log_return|
]
[b_error|
]
[entry]-&gt;[b_main]
[b_main]-&gt;[b_method_check]
[b_main]-&gt;[bz_b_method_check]
[bz_b_method_check]-&gt;[b_creation]
[bz_b_method_check]-&gt;[bz_b_creation]
[bz_b_creation]-&gt;[b_deletion]
[bz_b_creation]-&gt;[bnz_b_deletion]
[bnz_b_deletion]-&gt;[b_update]
[bnz_b_deletion]-&gt;[bnz_b_update]
[bnz_b_update]-&gt;[b_closeout]
[bnz_b_update]-&gt;[bnz_b_closeout]
[bnz_b_closeout]-&gt;[b_optin]
[bnz_b_closeout]-&gt;[bnz_b_optin]
[bnz_b_optin]-&gt;[b_noop]
[bnz_b_optin]-&gt;[bnz_b_noop]
[bnz_b_noop]-&gt;[b_error]
[b_method_check]-&gt;[method_setup]
[b_method_check]-&gt;[bnz_method_setup]
[bnz_method_setup]-&gt;[method_item_create]
[bnz_method_setup]-&gt;[bnz_method_item_create]
[bnz_method_item_create]-&gt;[method_item_update]
[bnz_method_item_create]-&gt;[bnz_method_item_update]
[bnz_method_item_update]-&gt;[method_item_delete]
[bnz_method_item_update]-&gt;[bnz_method_item_delete]
[bnz_method_item_delete]-&gt;[method_get_metric]
[bnz_method_item_delete]-&gt;[bnz_method_get_metric]
[bnz_method_get_metric]-&gt;[method_get_metrics]
[bnz_method_get_metric]-&gt;[bnz_method_get_metrics]
[bnz_method_get_metrics]-&gt;[b_error]
[b_creation]-&gt;[b_log_return]
[b_optin]-&gt;[b_log_return]
[b_deletion]-&gt;[sub_check_author]
[b_deletion]-&gt;[callsub_sub_check_author]
[callsub_sub_check_author]-&gt;[b_log_return]
[callsub_sub_check_author]-&gt;[b_log_return]
[b_update]-&gt;[sub_check_author]
[b_update]-&gt;[callsub_sub_check_author]
[b_closeout]-&gt;[b_log_return]
[b_noop]-&gt;[b_error]
[method_setup]-&gt;[b_log_return]
[method_item_create]-&gt;[b_log_return]
[method_item_update]-&gt;[b_log_return]
[method_item_delete]-&gt;[b_log_return]
[method_get_metric]-&gt;[b_log_return]
[method_get_metrics]-&gt;[b_log_return]</desc>
  <path d="M1238.5 52.5 L1238.5 72.5 L1238.5 92.5 L1238.5 92.5 " style="stroke:#33322E;fill:none;stroke-dasharray:none;"></path>
  <path d="M1233.2 79.2 L1238.5 85.8 L1243.8 79.2 L1238.5 92.5 Z" style="stroke:#33322E;fill:#33322E;stroke-dasharray:none;"></path>
  <path d="M1202 114.1 L552.8 151.5 L552.8 171.5 L552.8 171.5 " style="stroke:#33322E;fill:none;stroke-dasharray:none;"></path>
  <path d="M547.4 158.2 L552.8 164.8 L558.1 158.2 L552.8 171.5 Z" style="stroke:#33322E;fill:#33322E;stroke-dasharray:none;"></path>
  <path d="M1275 114.2 L1901.8 151.5 L1901.8 191 L1901.8 191 L1901.8 230.5 L1901.8 230.5 L1901.8 250.5 L1901.8 250.5 " style="stroke:#33322E;fill:none;stroke-dasharray:none;"></path>
  <path d="M1896.4 237.2 L1901.8 243.8 L1907.1 237.2 L1901.8 250.5 Z" style="stroke:#33322E;fill:#33322E;stroke-dasharray:none;"></path>
  <path d="M1812.8 277.2 L1415.8 309.5 L1415.8 349 L1415.8 349 L1415.8 388.5 L1415.8 388.5 L1415.8 428 L1415.8 428 L1415.8 467.5 L1415.8 467.5 L1415.8 507 L1415.8 507 L1415.8 546.5 L1415.8 546.5 L1415.8 586 L1415.8 586 L1415.8 625.5 L1415.8 625.5 L1415.8 645.5 L1415.8 645.5 " style="stroke:#33322E;fill:none;stroke-dasharray:none;"></path>
  <path d="M1410.4 632.2 L1415.8 638.8 L1421.1 632.2 L1415.8 645.5 Z" style="stroke:#33322E;fill:#33322E;stroke-dasharray:none;"></path>
  <path d="M1932.4 289.5 L1963.8 309.5 L1963.8 329.5 L1963.8 329.5 " style="stroke:#33322E;fill:none;stroke-dasharray:none;"></path>
  <path d="M1958.4 316.2 L1963.8 322.8 L1969.1 316.2 L1963.8 329.5 Z" style="stroke:#33322E;fill:#33322E;stroke-dasharray:none;"></path>
  <path d="M1893.8 355.5 L1539.8 388.5 L1539.8 428 L1539.8 428 L1539.8 467.5 L1539.8 467.5 L1539.8 487.5 L1539.8 487.5 " style="stroke:#33322E;fill:none;stroke-dasharray:none;"></path>
  <path d="M1534.4 474.2 L1539.8 480.8 L1545.1 474.2 L1539.8 487.5 Z" style="stroke:#33322E;fill:#33322E;stroke-dasharray:none;"></path>
  <path d="M2033.8 368.3 L2106.8 388.5 L2106.8 408.5 L2106.8 408.5 " style="stroke:#33322E;fill:none;stroke-dasharray:none;"></path>
  <path d="M2101.4 395.2 L2106.8 401.8 L2112.1 395.2 L2106.8 408.5 Z" style="stroke:#33322E;fill:#33322E;stroke-dasharray:none;"></path>
  <path d="M2032.3 438.5 L1825.8 467.5 L1825.8 487.5 L1825.8 487.5 " style="stroke:#33322E;fill:none;stroke-dasharray:none;"></path>
  <path d="M1820.4 474.2 L1825.8 480.8 L1831.1 474.2 L1825.8 487.5 Z" style="stroke:#33322E;fill:#33322E;stroke-dasharray:none;"></path>
  <path d="M2144 447.5 L2182.3 467.5 L2182.3 487.5 L2182.3 487.5 " style="stroke:#33322E;fill:none;stroke-dasharray:none;"></path>
  <path d="M2176.9 474.2 L2182.3 480.8 L2187.6 474.2 L2182.3 487.5 Z" style="stroke:#33322E;fill:#33322E;stroke-dasharray:none;"></path>
  <path d="M2117.3 519.5 L1976.8 546.5 L1976.8 586 L1976.8 586 L1976.8 625.5 L1976.8 625.5 L1976.8 645.5 L1976.8 645.5 " style="stroke:#33322E;fill:none;stroke-dasharray:none;"></path>
  <path d="M1971.4 632.2 L1976.8 638.8 L1982.1 632.2 L1976.8 645.5 Z" style="stroke:#33322E;fill:#33322E;stroke-dasharray:none;"></path>
  <path d="M2216.1 526.5 L2250.8 546.5 L2250.8 566.5 L2250.8 566.5 " style="stroke:#33322E;fill:none;stroke-dasharray:none;"></path>
  <path d="M2245.4 553.2 L2250.8 559.8 L2256.1 553.2 L2250.8 566.5 Z" style="stroke:#33322E;fill:#33322E;stroke-dasharray:none;"></path>
  <path d="M2183.1 605.5 L2113.8 625.5 L2113.8 645.5 L2113.8 645.5 " style="stroke:#33322E;fill:none;stroke-dasharray:none;"></path>
  <path d="M2108.4 632.2 L2113.8 638.8 L2119.1 632.2 L2113.8 645.5 Z" style="stroke:#33322E;fill:#33322E;stroke-dasharray:none;"></path>
  <path d="M2285.8 605.5 L2321.8 625.5 L2321.8 645.5 L2321.8 645.5 " style="stroke:#33322E;fill:none;stroke-dasharray:none;"></path>
  <path d="M2316.4 632.2 L2321.8 638.8 L2327.1 632.2 L2321.8 645.5 Z" style="stroke:#33322E;fill:#33322E;stroke-dasharray:none;"></path>
  <path d="M2289.2 684.5 L2255.8 704.5 L2255.8 724.5 L2255.8 724.5 " style="stroke:#33322E;fill:none;stroke-dasharray:none;"></path>
  <path d="M2250.4 711.2 L2255.8 717.8 L2261.1 711.2 L2255.8 724.5 Z" style="stroke:#33322E;fill:#33322E;stroke-dasharray:none;"></path>
  <path d="M2354.3 684.5 L2387.8 704.5 L2387.8 724.5 L2387.8 724.5 " style="stroke:#33322E;fill:none;stroke-dasharray:none;"></path>
  <path d="M2382.4 711.2 L2387.8 717.8 L2393.1 711.2 L2387.8 724.5 Z" style="stroke:#33322E;fill:#33322E;stroke-dasharray:none;"></path>
  <path d="M2387.8 763.5 L2387.8 783.5 L2297.3 810.6 L2297.3 810.6 " style="stroke:#33322E;fill:none;stroke-dasharray:none;"></path>
  <path d="M2308.5 801.6 L2303.6 808.7 L2311.6 811.9 L2297.3 810.6 Z" style="stroke:#33322E;fill:#33322E;stroke-dasharray:none;"></path>
  <path d="M478.3 197.2 L78.5 230.5 L78.5 270 L78.5 270 L78.5 309.5 L78.5 309.5 L78.5 349 L78.5 349 L78.5 388.5 L78.5 388.5 L78.5 428 L78.5 428 L78.5 467.5 L78.5 467.5 L78.5 507 L78.5 507 L78.5 546.5 L78.5 546.5 L78.5 586 L78.5 586 L78.5 625.5 L78.5 625.5 L78.5 645.5 L78.5 645.5 " style="stroke:#33322E;fill:none;stroke-dasharray:none;"></path>
  <path d="M73.2 632.2 L78.5 638.8 L83.8 632.2 L78.5 645.5 Z" style="stroke:#33322E;fill:#33322E;stroke-dasharray:none;"></path>
  <path d="M601.7 210.5 L652 230.5 L652 250.5 L652 250.5 " style="stroke:#33322E;fill:none;stroke-dasharray:none;"></path>
  <path d="M646.7 237.2 L652 243.8 L657.3 237.2 L652 250.5 Z" style="stroke:#33322E;fill:#33322E;stroke-dasharray:none;"></path>
  <path d="M568 278.8 L277 309.5 L277 349 L277 349 L277 388.5 L277 388.5 L277 428 L277 428 L277 467.5 L277 467.5 L277 507 L277 507 L277 546.5 L277 546.5 L277 586 L277 586 L277 625.5 L277 625.5 L277 645.5 L277 645.5 " style="stroke:#33322E;fill:none;stroke-dasharray:none;"></path>
  <path d="M271.7 632.2 L277 638.8 L282.3 632.2 L277 645.5 Z" style="stroke:#33322E;fill:#33322E;stroke-dasharray:none;"></path>
  <path d="M708 289.5 L765.5 309.5 L765.5 329.5 L765.5 329.5 " style="stroke:#33322E;fill:none;stroke-dasharray:none;"></path>
  <path d="M760.2 316.2 L765.5 322.8 L770.8 316.2 L765.5 329.5 Z" style="stroke:#33322E;fill:#33322E;stroke-dasharray:none;"></path>
  <path d="M653 366 L504 388.5 L504 428 L504 428 L504 467.5 L504 467.5 L504 507 L504 507 L504 546.5 L504 546.5 L504 586 L504 586 L504 625.5 L504 625.5 L504 645.5 L504 645.5 " style="stroke:#33322E;fill:none;stroke-dasharray:none;"></path>
  <path d="M498.7 632.2 L504 638.8 L509.3 632.2 L504 645.5 Z" style="stroke:#33322E;fill:#33322E;stroke-dasharray:none;"></path>
  <path d="M821.5 368.5 L879 388.5 L879 408.5 L879 408.5 " style="stroke:#33322E;fill:none;stroke-dasharray:none;"></path>
  <path d="M873.7 395.2 L879 401.8 L884.3 395.2 L879 408.5 Z" style="stroke:#33322E;fill:#33322E;stroke-dasharray:none;"></path>
  <path d="M805.9 447.5 L731 467.5 L731 507 L731 507 L731 546.5 L731 546.5 L731 586 L731 586 L731 625.5 L731 625.5 L731 645.5 L731 645.5 " style="stroke:#33322E;fill:none;stroke-dasharray:none;"></path>
  <path d="M725.7 632.2 L731 638.8 L736.3 632.2 L731 645.5 Z" style="stroke:#33322E;fill:#33322E;stroke-dasharray:none;"></path>
  <path d="M933.9 447.5 L990.3 467.5 L990.3 487.5 L990.3 487.5 " style="stroke:#33322E;fill:none;stroke-dasharray:none;"></path>
  <path d="M984.9 474.2 L990.3 480.8 L995.6 474.2 L990.3 487.5 Z" style="stroke:#33322E;fill:#33322E;stroke-dasharray:none;"></path>
  <path d="M972.1 526.5 L953.5 546.5 L953.5 586 L953.5 586 L953.5 625.5 L953.5 625.5 L953.5 645.5 L953.5 645.5 " style="stroke:#33322E;fill:none;stroke-dasharray:none;"></path>
  <path d="M948.2 632.2 L953.5 638.8 L958.8 632.2 L953.5 645.5 Z" style="stroke:#33322E;fill:#33322E;stroke-dasharray:none;"></path>
  <path d="M1087.3 526.5 L1186.8 546.5 L1186.8 566.5 L1186.8 566.5 " style="stroke:#33322E;fill:none;stroke-dasharray:none;"></path>
  <path d="M1181.4 553.2 L1186.8 559.8 L1192.1 553.2 L1186.8 566.5 Z" style="stroke:#33322E;fill:#33322E;stroke-dasharray:none;"></path>
  <path d="M1181.4 605.5 L1176 625.5 L1176 645.5 L1176 645.5 " style="stroke:#33322E;fill:none;stroke-dasharray:none;"></path>
  <path d="M1170.7 632.2 L1176 638.8 L1181.3 632.2 L1176 645.5 Z" style="stroke:#33322E;fill:#33322E;stroke-dasharray:none;"></path>
  <path d="M1252.7 605.5 L1320.3 625.5 L1320.3 665 L1320.3 665 L1320.3 704.5 L1320.3 704.5 L1336.1 724.5 L1336.1 724.5 " style="stroke:#33322E;fill:none;stroke-dasharray:none;"></path>
  <path d="M1323.6 717.4 L1331.9 719.3 L1332 710.7 L1336.1 724.5 Z" style="stroke:#33322E;fill:#33322E;stroke-dasharray:none;"></path>
  <path d="M1351.5 763.5 L1351.5 783.5 L2214.3 821.2 L2214.3 821.2 " style="stroke:#33322E;fill:none;stroke-dasharray:none;"></path>
  <path d="M2200.7 825.9 L2207.6 820.9 L2201.2 815.3 L2214.3 821.2 Z" style="stroke:#33322E;fill:#33322E;stroke-dasharray:none;"></path>
  <path d="M1415.8 684.5 L1415.8 704.5 L1129.8 736.7 L1129.8 736.7 " style="stroke:#33322E;fill:none;stroke-dasharray:none;"></path>
  <path d="M1142.4 729.9 L1136.4 735.9 L1143.6 740.5 L1129.8 736.7 Z" style="stroke:#33322E;fill:#33322E;stroke-dasharray:none;"></path>
  <path d="M2113.8 684.5 L2113.8 704.5 L1129.8 741.6 L1129.8 741.6 " style="stroke:#33322E;fill:none;stroke-dasharray:none;"></path>
  <path d="M1142.9 735.7 L1136.4 741.3 L1143.3 746.4 L1129.8 741.6 Z" style="stroke:#33322E;fill:#33322E;stroke-dasharray:none;"></path>
  <path d="M1539.8 526.5 L1539.8 546.5 L1539.8 566.5 L1539.8 566.5 " style="stroke:#33322E;fill:none;stroke-dasharray:none;"></path>
  <path d="M1534.4 553.2 L1539.8 559.8 L1545.1 553.2 L1539.8 566.5 Z" style="stroke:#33322E;fill:#33322E;stroke-dasharray:none;"></path>
  <path d="M1595.3 520 L1708.3 546.5 L1747.5 566.5 L1747.5 566.5 " style="stroke:#33322E;fill:none;stroke-dasharray:none;"></path>
  <path d="M1733.2 565.2 L1741.6 563.5 L1738 555.7 L1747.5 566.5 Z" style="stroke:#33322E;fill:#33322E;stroke-dasharray:none;"></path>
  <path d="M1785.8 605.5 L1785.8 625.5 L1785.8 665 L1785.8 665 L1785.8 704.5 L1785.8 704.5 L1129.8 740.4 L1129.8 740.4 " style="stroke:#33322E;fill:none;stroke-dasharray:none;"></path>
  <path d="M1142.8 734.4 L1136.4 740.1 L1143.4 745 L1129.8 740.4 Z" style="stroke:#33322E;fill:#33322E;stroke-dasharray:none;"></path>
  <path d="M1787.5 526.5 L1748.3 546.5 L1623.8 570.1 L1623.8 570.1 " style="stroke:#33322E;fill:none;stroke-dasharray:none;"></path>
  <path d="M1635.9 562.4 L1630.3 568.8 L1637.8 572.8 L1623.8 570.1 Z" style="stroke:#33322E;fill:#33322E;stroke-dasharray:none;"></path>
  <path d="M1871.8 525 L1926.8 546.5 L1855.4 566.5 L1855.4 566.5 " style="stroke:#33322E;fill:none;stroke-dasharray:none;"></path>
  <path d="M1866.8 557.8 L1861.8 564.7 L1869.6 568 L1855.4 566.5 Z" style="stroke:#33322E;fill:#33322E;stroke-dasharray:none;"></path>
  <path d="M1976.8 684.5 L1976.8 704.5 L1129.8 741.2 L1129.8 741.2 " style="stroke:#33322E;fill:none;stroke-dasharray:none;"></path>
  <path d="M1142.8 735.3 L1136.4 740.9 L1143.3 745.9 L1129.8 741.2 Z" style="stroke:#33322E;fill:#33322E;stroke-dasharray:none;"></path>
  <path d="M2255.8 763.5 L2255.8 783.5 L2255.8 803.5 L2255.8 803.5 " style="stroke:#33322E;fill:none;stroke-dasharray:none;"></path>
  <path d="M2250.4 790.2 L2255.8 796.8 L2261.1 790.2 L2255.8 803.5 Z" style="stroke:#33322E;fill:#33322E;stroke-dasharray:none;"></path>
  <path d="M78.5 684.5 L78.5 704.5 L999.8 741.4 L999.8 741.4 " style="stroke:#33322E;fill:none;stroke-dasharray:none;"></path>
  <path d="M986.2 746.2 L993.1 741.1 L986.6 735.5 L999.8 741.4 Z" style="stroke:#33322E;fill:#33322E;stroke-dasharray:none;"></path>
  <path d="M277 684.5 L277 704.5 L999.8 740.7 L999.8 740.7 " style="stroke:#33322E;fill:none;stroke-dasharray:none;"></path>
  <path d="M986.2 745.4 L993.1 740.4 L986.7 734.7 L999.8 740.7 Z" style="stroke:#33322E;fill:#33322E;stroke-dasharray:none;"></path>
  <path d="M504 684.5 L504 704.5 L999.8 739.4 L999.8 739.4 " style="stroke:#33322E;fill:none;stroke-dasharray:none;"></path>
  <path d="M986.1 743.8 L993.1 739 L986.8 733.2 L999.8 739.4 Z" style="stroke:#33322E;fill:#33322E;stroke-dasharray:none;"></path>
  <path d="M731 684.5 L731 704.5 L999.8 736.3 L999.8 736.3 " style="stroke:#33322E;fill:none;stroke-dasharray:none;"></path>
  <path d="M985.9 740 L993.1 735.5 L987.1 729.4 L999.8 736.3 Z" style="stroke:#33322E;fill:#33322E;stroke-dasharray:none;"></path>
  <path d="M953.5 684.5 L953.5 704.5 L1009.8 724.5 L1009.8 724.5 " style="stroke:#33322E;fill:none;stroke-dasharray:none;"></path>
  <path d="M995.5 725.1 L1003.5 722.3 L999 715 L1009.8 724.5 Z" style="stroke:#33322E;fill:#33322E;stroke-dasharray:none;"></path>
  <path d="M1176 684.5 L1176 704.5 L1119.7 724.5 L1119.7 724.5 " style="stroke:#33322E;fill:none;stroke-dasharray:none;"></path>
  <path d="M1130.5 715 L1126 722.3 L1134 725.1 L1119.7 724.5 Z" style="stroke:#33322E;fill:#33322E;stroke-dasharray:none;"></path>
  <rect x="1206.5" y="13.5" height="39" width="64" id="entry" class="node highlighted" style="stroke:#33322E;fill:#07f217;stroke-dasharray:none;"></rect>
  <text x="1238.5" y="35" style="fill: #33322E;text-anchor: middle;">entry</text>
  <path d="M1206.5 44.5 L1270.5 44.5" style="stroke:#33322E;fill:none;stroke-dasharray:none;"></path>
  <rect x="1202.5" y="92.5" height="39" width="73" id="b_main" class="node" style="stroke:#33322E;fill:#07f217;stroke-dasharray:none;"></rect>
  <text x="1239" y="114" style="fill: #33322E;text-anchor: middle;">b_main</text>
  <path d="M1202.5 123.5 L1275.5 123.5" style="stroke:#33322E;fill:none;stroke-dasharray:none;"></path>
  <rect x="1812.5" y="250.5" height="39" width="178" id="bz_b_method_check" class="node" style="stroke:#33322E;fill:#07f217;stroke-dasharray:none;"></rect>
  <text x="1901.5" y="272" style="fill: #33322E;text-anchor: middle;">bz_b_method_check</text>
  <path d="M1812.5 281.5 L1990.5 281.5" style="stroke:#33322E;fill:none;stroke-dasharray:none;"></path>
  <rect x="1893.5" y="329.5" height="39" width="140" id="bz_b_creation" class="node" style="stroke:#33322E;fill:#07f217;stroke-dasharray:none;"></rect>
  <text x="1963.5" y="351" style="fill: #33322E;text-anchor: middle;">bz_b_creation</text>
  <path d="M1893.5 360.5 L2033.5 360.5" style="stroke:#33322E;fill:none;stroke-dasharray:none;"></path>
  <rect x="2032.5" y="408.5" height="39" width="149" id="bnz_b_deletion" class="node" style="stroke:#33322E;fill:#07f217;stroke-dasharray:none;"></rect>
  <text x="2107" y="430" style="fill: #33322E;text-anchor: middle;">bnz_b_deletion</text>
  <path d="M2032.5 439.5 L2181.5 439.5" style="stroke:#33322E;fill:none;stroke-dasharray:none;"></path>
  <rect x="2117.5" y="487.5" height="39" width="130" id="bnz_b_update" class="node" style="stroke:#33322E;fill:#07f217;stroke-dasharray:none;"></rect>
  <text x="2182.5" y="509" style="fill: #33322E;text-anchor: middle;">bnz_b_update</text>
  <path d="M2117.5 518.5 L2247.5 518.5" style="stroke:#33322E;fill:none;stroke-dasharray:none;"></path>
  <rect x="2176.5" y="566.5" height="39" width="149" id="bnz_b_closeout" class="node" style="stroke:#33322E;fill:#07f217;stroke-dasharray:none;"></rect>
  <text x="2251" y="588" style="fill: #33322E;text-anchor: middle;">bnz_b_closeout</text>
  <path d="M2176.5 597.5 L2325.5 597.5" style="stroke:#33322E;fill:none;stroke-dasharray:none;"></path>
  <rect x="2261.5" y="645.5" height="39" width="121" id="bnz_b_optin" class="node" style="stroke:#33322E;fill:#07f217;stroke-dasharray:none;"></rect>
  <text x="2322" y="667" style="fill: #33322E;text-anchor: middle;">bnz_b_optin</text>
  <path d="M2261.5 676.5 L2382.5 676.5" style="stroke:#33322E;fill:none;stroke-dasharray:none;"></path>
  <rect x="2332.5" y="724.5" height="39" width="111" id="bnz_b_noop" class="node" style="stroke:#33322E;fill:#07f217;stroke-dasharray:none;"></rect>
  <text x="2388" y="746" style="fill: #33322E;text-anchor: middle;">bnz_b_noop</text>
  <path d="M2332.5 755.5 L2443.5 755.5" style="stroke:#33322E;fill:none;stroke-dasharray:none;"></path>
  <rect x="478.5" y="171.5" height="39" width="149" id="b_method_check" class="node" style="stroke:#33322E;fill:#07f217;stroke-dasharray:none;"></rect>
  <text x="553" y="193" style="fill: #33322E;text-anchor: middle;">b_method_check</text>
  <path d="M478.5 202.5 L627.5 202.5" style="stroke:#33322E;fill:none;stroke-dasharray:none;"></path>
  <rect x="568.5" y="250.5" height="39" width="168" id="bnz_method_setup" class="node" style="stroke:#33322E;fill:#07f217;stroke-dasharray:none;"></rect>
  <text x="652.5" y="272" style="fill: #33322E;text-anchor: middle;">bnz_method_setup</text>
  <path d="M568.5 281.5 L736.5 281.5" style="stroke:#33322E;fill:none;stroke-dasharray:none;"></path>
  <rect x="653.5" y="329.5" height="39" width="225" id="bnz_method_item_create" class="node" style="stroke:#33322E;fill:#07f217;stroke-dasharray:none;"></rect>
  <text x="766" y="351" style="fill: #33322E;text-anchor: middle;">bnz_method_item_create</text>
  <path d="M653.5 360.5 L878.5 360.5" style="stroke:#33322E;fill:none;stroke-dasharray:none;"></path>
  <rect x="766.5" y="408.5" height="39" width="225" id="bnz_method_item_update" class="node" style="stroke:#33322E;fill:#07f217;stroke-dasharray:none;"></rect>
  <text x="879" y="430" style="fill: #33322E;text-anchor: middle;">bnz_method_item_update</text>
  <path d="M766.5 439.5 L991.5 439.5" style="stroke:#33322E;fill:none;stroke-dasharray:none;"></path>
  <rect x="877.5" y="487.5" height="39" width="225" id="bnz_method_item_delete" class="node" style="stroke:#33322E;fill:#07f217;stroke-dasharray:none;"></rect>
  <text x="990" y="509" style="fill: #33322E;text-anchor: middle;">bnz_method_item_delete</text>
  <path d="M877.5 518.5 L1102.5 518.5" style="stroke:#33322E;fill:none;stroke-dasharray:none;"></path>
  <rect x="1078.5" y="566.5" height="39" width="216" id="bnz_method_get_metric" class="node" style="stroke:#33322E;fill:#07f217;stroke-dasharray:none;"></rect>
  <text x="1186.5" y="588" style="fill: #33322E;text-anchor: middle;">bnz_method_get_metric</text>
  <path d="M1078.5 597.5 L1294.5 597.5" style="stroke:#33322E;fill:none;stroke-dasharray:none;"></path>
  <rect x="1239.5" y="724.5" height="39" width="225" id="bnz_method_get_metrics" class="node" style="stroke:#33322E;fill:#07f217;stroke-dasharray:none;"></rect>
  <text x="1352" y="746" style="fill: #33322E;text-anchor: middle;">bnz_method_get_metrics</text>
  <path d="M1239.5 755.5 L1464.5 755.5" style="stroke:#33322E;fill:none;stroke-dasharray:none;"></path>
  <rect x="1455.5" y="566.5" height="39" width="168" id="sub_check_author" class="node" style="stroke:#33322E;fill:#07f217;stroke-dasharray:none;"></rect>
  <text x="1539.5" y="588" style="fill: #33322E;text-anchor: middle;">sub_check_author</text>
  <path d="M1455.5 597.5 L1623.5 597.5" style="stroke:#33322E;fill:none;stroke-dasharray:none;"></path>
  <rect x="1360.5" y="645.5" height="39" width="111" id="b_creation" class="node" style="stroke:#33322E;fill:#07f217;stroke-dasharray:none;"></rect>
  <text x="1416" y="667" style="fill: #33322E;text-anchor: middle;">b_creation</text>
  <path d="M1360.5 676.5 L1471.5 676.5" style="stroke:#33322E;fill:none;stroke-dasharray:none;"></path>
  <rect x="2072.5" y="645.5" height="39" width="83" id="b_optin" class="node" style="stroke:#33322E;fill:#07f217;stroke-dasharray:none;"></rect>
  <text x="2114" y="667" style="fill: #33322E;text-anchor: middle;">b_optin</text>
  <path d="M2072.5 676.5 L2155.5 676.5" style="stroke:#33322E;fill:none;stroke-dasharray:none;"></path>
  <rect x="1484.5" y="487.5" height="39" width="111" id="b_deletion" class="node" style="stroke:#33322E;fill:#07f217;stroke-dasharray:none;"></rect>
  <text x="1540" y="509" style="fill: #33322E;text-anchor: middle;">b_deletion</text>
  <path d="M1484.5 518.5 L1595.5 518.5" style="stroke:#33322E;fill:none;stroke-dasharray:none;"></path>
  <rect x="1663.5" y="566.5" height="39" width="244" id="callsub_sub_check_author" class="node" style="stroke:#33322E;fill:#07f217;stroke-dasharray:none;"></rect>
  <text x="1785.5" y="588" style="fill: #33322E;text-anchor: middle;">callsub_sub_check_author</text>
  <path d="M1663.5 597.5 L1907.5 597.5" style="stroke:#33322E;fill:none;stroke-dasharray:none;"></path>
  <rect x="1779.5" y="487.5" height="39" width="92" id="b_update" class="node" style="stroke:#33322E;fill:#07f217;stroke-dasharray:none;"></rect>
  <text x="1825.5" y="509" style="fill: #33322E;text-anchor: middle;">b_update</text>
  <path d="M1779.5 518.5 L1871.5 518.5" style="stroke:#33322E;fill:none;stroke-dasharray:none;"></path>
  <rect x="1921.5" y="645.5" height="39" width="111" id="b_closeout" class="node" style="stroke:#33322E;fill:#07f217;stroke-dasharray:none;"></rect>
  <text x="1977" y="667" style="fill: #33322E;text-anchor: middle;">b_closeout</text>
  <path d="M1921.5 676.5 L2032.5 676.5" style="stroke:#33322E;fill:none;stroke-dasharray:none;"></path>
  <rect x="2219.5" y="724.5" height="39" width="73" id="b_noop" class="node" style="stroke:#33322E;fill:#07f217;stroke-dasharray:none;"></rect>
  <text x="2256" y="746" style="fill: #33322E;text-anchor: middle;">b_noop</text>
  <path d="M2219.5 755.5 L2292.5 755.5" style="stroke:#33322E;fill:none;stroke-dasharray:none;"></path>
  <rect x="13.5" y="645.5" height="39" width="130" id="method_setup" class="node" style="stroke:#33322E;fill:#07f217;stroke-dasharray:none;"></rect>
  <text x="78.5" y="667" style="fill: #33322E;text-anchor: middle;">method_setup</text>
  <path d="M13.5 676.5 L143.5 676.5" style="stroke:#33322E;fill:none;stroke-dasharray:none;"></path>
  <rect x="183.5" y="645.5" height="39" width="187" id="method_item_create" class="node" style="stroke:#33322E;fill:#07f217;stroke-dasharray:none;"></rect>
  <text x="277" y="667" style="fill: #33322E;text-anchor: middle;">method_item_create</text>
  <path d="M183.5 676.5 L370.5 676.5" style="stroke:#33322E;fill:none;stroke-dasharray:none;"></path>
  <rect x="410.5" y="645.5" height="39" width="187" id="method_item_update" class="node" style="stroke:#33322E;fill:#07f217;stroke-dasharray:none;"></rect>
  <text x="504" y="667" style="fill: #33322E;text-anchor: middle;">method_item_update</text>
  <path d="M410.5 676.5 L597.5 676.5" style="stroke:#33322E;fill:none;stroke-dasharray:none;"></path>
  <rect x="637.5" y="645.5" height="39" width="187" id="method_item_delete" class="node" style="stroke:#33322E;fill:#07f217;stroke-dasharray:none;"></rect>
  <text x="731" y="667" style="fill: #33322E;text-anchor: middle;">method_item_delete</text>
  <path d="M637.5 676.5 L824.5 676.5" style="stroke:#33322E;fill:none;stroke-dasharray:none;"></path>
  <rect x="864.5" y="645.5" height="39" width="178" id="method_get_metric" class="node" style="stroke:#33322E;fill:#07f217;stroke-dasharray:none;"></rect>
  <text x="953.5" y="667" style="fill: #33322E;text-anchor: middle;">method_get_metric</text>
  <path d="M864.5 676.5 L1042.5 676.5" style="stroke:#33322E;fill:none;stroke-dasharray:none;"></path>
  <rect x="1082.5" y="645.5" height="39" width="187" id="method_get_metrics" class="node" style="stroke:#33322E;fill:#07f217;stroke-dasharray:none;"></rect>
  <text x="1176" y="667" style="fill: #33322E;text-anchor: middle;">method_get_metrics</text>
  <path d="M1082.5 676.5 L1269.5 676.5" style="stroke:#33322E;fill:none;stroke-dasharray:none;"></path>
  <rect x="999.5" y="724.5" height="39" width="130" id="b_log_return" class="node" style="stroke:#33322E;fill:#07f217;stroke-dasharray:none;"></rect>
  <text x="1064.5" y="746" style="fill: #33322E;text-anchor: middle;">b_log_return</text>
  <path d="M999.5 755.5 L1129.5 755.5" style="stroke:#33322E;fill:none;stroke-dasharray:none;"></path>
  <rect x="2214.5" y="803.5" height="39" width="83" id="b_error" class="node" style="stroke:#33322E;fill:#07f217;stroke-dasharray:none;"></rect>
  <text x="2256" y="825" style="fill: #33322E;text-anchor: middle;">b_error</text>
  <path d="M2214.5 834.5 L2297.5 834.5" style="stroke:#33322E;fill:none;stroke-dasharray:none;"></path>
</svg>